<svg xmlns="http://www.w3.org/2000/svg" viewBox="0 0 86.264 73.168"><path style="fill:none;stroke:#000;stroke-miterlimit:10;stroke-width:4px" d="M0 19.973h11.442"/><path d="M328.652 81.445h-14.596a1.843 1.843 0 0 1-1.843-1.843 1.843 1.843 0 0 1 1.843-1.843h14.596Z" transform="translate(-244.388 -18.095)" style="fill:#ffeda1"/><path style="fill:#ffda00" d="M60.607 38.115h15.645v12.942H60.607z"/><path d="M295.18 89.262h29.527a3.945 3.945 0 0 0 3.945-3.945v-7.272a7.042 7.042 0 0 0-2.261-5.17l-5.75-5.317h-15.646l-10.693 7.31a7.042 7.042 0 0 0-3.068 5.814v4.635a3.945 3.945 0 0 0 3.946 3.945Z" transform="translate(-244.388 -18.095)" style="fill:none;stroke:#000;stroke-miterlimit:10;stroke-width:4px"/><path d="M13.262 8.784h8.91V31.33h-8.91a4.393 4.393 0 0 1-4.393-4.393v-13.76a4.393 4.393 0 0 1 4.393-4.394Z" style="fill:#ffda00"/><rect x="22.171" y="2" width="62.093" height="36.115" rx="10.354" style="fill:none;stroke:#000;stroke-miterlimit:10;stroke-width:4px"/><circle cx="32.619" cy="19.973" r="2.474"/><circle cx="40.991" cy="19.973" r="2.474"/><path style="fill:#ffeda1" d="M60.607 13.984h16.439v3.686H60.607zm0 8.29h16.439v3.686H60.607z"/></svg>