<svg xmlns="http://www.w3.org/2000/svg" viewBox="0 0 62.547 90.492"><path d="m170.196 65.123-12.269 24.01 12.23.13 10.417-20.386a29.808 29.808 0 0 1-10.378-3.754Z" transform="translate(-155.133 -8.605)" style="fill:#ffda00"/><path d="m180.574 68.877-10.418 20.385 7.27 9.835 15.43-30.195a34.38 34.38 0 0 1-12.282-.025Z" transform="translate(-155.133 -8.605)" style="fill:#ffeda1"/><path d="M202.531 64.354a19.462 19.462 0 0 1-9.947 4.596l10.38 20.313 12.23-.13Z" transform="translate(-155.133 -8.605)" style="fill:#ffeda1"/><path d="m180.22 68.817 15.474 30.28 7.27-9.834-10.38-20.313a34.632 34.632 0 0 1-12.363-.133Z" transform="translate(-155.133 -8.605)" style="fill:#ffda00"/><circle cx="31.273" cy="31.273" r="29.273" style="fill:none;stroke:#020202;stroke-miterlimit:10;stroke-width:4px"/><circle cx="31.273" cy="31.273" r="16.557" style="fill:#ffda00"/><path style="fill:#020202" d="m30.684 39.767-7.162-7.164 1.33-1.329 5.832 1.084 6.578-6.577 1.706 1.706-8.284 12.28z"/></svg>