<svg xmlns="http://www.w3.org/2000/svg" viewBox="0 0 90.442 68.891"><path d="M34.016 66.558c.342-5.722-.467-11.517-.086-17.241a5.191 5.191 0 0 1-.472-1.875c-.743-11.295 11.211-12.322 19.536-12.68 12.97-.558 25.927-1.19 38.903-.514v-7.725a8.29 8.29 0 0 0-8.291-8.29H26.448a8.29 8.29 0 0 0-8.291 8.29v34.91a8.29 8.29 0 0 0 8.29 8.29h7.628a3.862 3.862 0 0 1 .074-1.619 5.087 5.087 0 0 1-.133-1.546Z" transform="translate(-18.157 -18.232)" style="fill:#ffda00"/><path style="fill:#fff" d="M0 13.377h73.74v10.018H0z"/><rect x="14.703" y="15.4" width="73.74" height="51.491" rx="8.291" style="fill:none;stroke:#020202;stroke-miterlimit:10;stroke-width:4px"/><path style="fill:#020202" d="M14.703 29.942h73.74V39.96h-73.74z"/><circle cx="27.241" cy="53.291" r="6.388" style="fill:#020202"/><circle cx="37.408" cy="53.291" r="6.388" style="fill:#ffda00"/></svg>