<svg xmlns="http://www.w3.org/2000/svg" viewBox="0 0 62.744 79.168"><path d="M473.642 12.095h-37.984a7.402 7.402 0 0 0-7.38 7.38v1.595a8.512 8.512 0 0 1 2.512-.12c8.363.879 17.109 1.656 25.56.827a14.862 14.862 0 0 1 11.415.212 2.48 2.48 0 0 1 .93.558c3.927 2.945 6.184 6.635 5.586 11.66a11.944 11.944 0 0 1-1.573 4.473c-.631 7.184.217 14.95.212 22.018-.003 5.847 1.497 12.368-.322 18.03a16.866 16.866 0 0 1-1.04 2.535h2.084a7.402 7.402 0 0 0 7.38-7.38V19.474a7.402 7.402 0 0 0-7.38-7.38Z" transform="translate(-418.279 -12.095)" style="fill:#ffda00"/><path style="fill:#ffda00" d="M30.744 57.754h12.837v3.686H30.744z"/><path style="fill:#020202" d="M12.59 22.113h30.991v3.686H12.59zm0 7.373h30.991v3.686H12.59zm0 7.372h30.991v3.686H12.59z"/><path d="M465.643 91.263h-37.985a9.39 9.39 0 0 1-9.38-9.38V27.474a9.39 9.39 0 0 1 9.38-9.38h37.985a9.39 9.39 0 0 1 9.38 9.38v54.409a9.39 9.39 0 0 1-9.38 9.38Zm-37.985-69.169a5.385 5.385 0 0 0-5.38 5.38v54.409a5.385 5.385 0 0 0 5.38 5.38h37.985a5.386 5.386 0 0 0 5.38-5.38V27.474a5.386 5.386 0 0 0-5.38-5.38Z" transform="translate(-418.279 -12.095)" style="fill:#020202"/><circle cx="19.309" cy="59.597" r="6.718" style="fill:#ffda00"/></svg>