<svg xmlns="http://www.w3.org/2000/svg" width="15.687" height="15.688"><path data-name="Фигура 25" d="M191.163 197.729a2.244 2.244 0 1 1-2.244-2.244 2.244 2.244 0 0 1 2.244 2.244Zm1.19-7.842h-6.87a4.42 4.42 0 0 0-4.407 4.409v6.869a4.421 4.421 0 0 0 4.407 4.408h6.87a4.421 4.421 0 0 0 4.407-4.408V194.3a4.42 4.42 0 0 0-4.407-4.413Zm-3.435 12.665a4.822 4.822 0 1 1 4.821-4.823 4.822 4.822 0 0 1-4.821 4.823Zm4.821-8.909a.92.92 0 1 1 .92-.921.92.92 0 0 1-.92.921Z" transform="translate(-181.063 -189.875)" style="fill:#fff;fill-rule:evenodd"/></svg>