<svg xmlns="http://www.w3.org/2000/svg" viewBox="0 0 24.482 30.027"><path d="M278.944 62.363c-3.75 2.493-9.8.045-13.446-5.439l-4.173-6.278c-3.646-5.484-3.56-12.01.19-14.503" transform="translate(-257.896 -34.062)" style="fill:none;stroke:#020202;stroke-miterlimit:10;stroke-width:1.5px"/><path d="M274.559 53.313a3.495 3.495 0 0 1 4.831.973l1.658 2.494a3.495 3.495 0 0 1-.973 4.832l-1.276.848m-10.637-18.77a3.495 3.495 0 0 0 .973-4.832l-1.658-2.493a3.495 3.495 0 0 0-4.831-.974l-1.277.849" transform="translate(-257.896 -34.062)" style="fill:none;stroke:#020202;stroke-miterlimit:10;stroke-width:1.5px"/><path d="m274.88 53.1-2.152 1.433a.866.866 0 0 1-1.19-.284l-5.414-8.125a.866.866 0 0 1 .196-1.207l2.152-1.433" transform="translate(-257.896 -34.062)" style="fill:none;stroke:#020202;stroke-miterlimit:10;stroke-width:1.5px"/></svg>