<svg xmlns="http://www.w3.org/2000/svg" width="17.906" height="10.062"><path data-name="Фигура 4" d="M95.749 193.208a5.033 5.033 0 0 0-1.936-.167 11.24 11.24 0 0 0-1.936.087 11.15 11.15 0 0 0-1.143 2.009c-.612 1.119-1.369 2.186-1.848 2.18-.62-.007-.477-1.843-.44-3.185a1.465 1.465 0 0 0-.265-1.26 5.876 5.876 0 0 0-1.231-.418s-2.693-.2-3.079.922c.512.064 1.4-.09 1.056 3.353-.017.17-.412 1.587-1.672-.333-.311-.477-1.52-3.344-1.935-3.355a10.042 10.042 0 0 0-3.255.167c-.446.234.6 2.22 2.375 4.864 1.449 2.161 2.983 3.852 5.63 4.276a6.84 6.84 0 0 0 2.2-.083c.28-.129-.06-2.007.88-2.181.423-.077 2.028 1.948 2.64 2.181a6.625 6.625 0 0 0 2.023.167c.9-.027 1.924.074 2.023-.5.221-1.29-2.726-2.972-2.815-3.774-.064-.572 1.078-1.629 1.672-2.43.723-.982 1.507-2.157 1.056-2.52Z" transform="translate(-77.969 -192.438)" style="fill:#fff;fill-rule:evenodd"/></svg>