<svg width="83" height="70" fill="none" xmlns="http://www.w3.org/2000/svg"><g clip-path="url(#a)"><path d="M0 19.108h10.947" stroke="#000" stroke-width="4" stroke-miterlimit="10"/><path d="M80.616 60.608H66.653a1.763 1.763 0 1 1 0-3.527h13.963v3.527Zm-7.664-24.143H57.984v12.382h14.968V36.465Z" fill="#ED1B24"/><path d="M48.593 68.087h28.25a3.775 3.775 0 0 0 3.774-3.775v-6.957a6.737 6.737 0 0 0-2.164-4.947l-5.501-5.086H57.984l-10.23 6.993a6.738 6.738 0 0 0-2.935 5.563v4.434a3.773 3.773 0 0 0 3.774 3.775Z" stroke="#000" stroke-width="4" stroke-miterlimit="10"/><path d="M12.688 8.404h8.524v21.57h-8.524a4.203 4.203 0 0 1-4.203-4.203V12.607a4.203 4.203 0 0 1 4.203-4.203Z" fill="#ED1B24"/><path d="M70.71 1.913H31.117c-5.47 0-9.905 4.435-9.905 9.906v14.74c0 5.47 4.434 9.906 9.905 9.906H70.71c5.471 0 9.906-4.435 9.906-9.906v-14.74c0-5.47-4.435-9.906-9.906-9.906Z" stroke="#000" stroke-width="4" stroke-miterlimit="10"/><path d="M31.207 21.474a2.367 2.367 0 1 0 0-4.733 2.367 2.367 0 0 0 0 4.733Zm8.01 0a2.367 2.367 0 1 0 0-4.733 2.367 2.367 0 0 0 0 4.733Z" fill="#000"/><path d="M73.71 13.379H57.985v3.526H73.71V13.38Zm0 7.931H57.985v3.527H73.71V21.31Z" fill="#ED1B24"/></g><defs><clipPath id="a"><path fill="#fff" d="M0 0h82.53v70H0z"/></clipPath></defs></svg>