<svg width="91" height="70" fill="none" xmlns="http://www.w3.org/2000/svg"><g clip-path="url(#a)"><path d="M67.15 67.525h22.442v-6.228H67.15v6.228Z" fill="#ED1B24"/><path d="M61.297 68.036H35A33.036 33.036 0 0 1 1.964 35 33.036 33.036 0 0 1 35 1.964 33.036 33.036 0 0 1 68.036 35v26.297a6.739 6.739 0 0 1-6.739 6.74v-.001Z" stroke="#020202" stroke-width="4" stroke-miterlimit="10"/><path d="M35 61.018c14.37 0 26.018-11.649 26.018-26.018C61.018 20.63 49.369 8.982 35 8.982 20.63 8.982 8.982 20.631 8.982 35c0 14.37 11.649 26.018 26.018 26.018Z" fill="#ED1B24"/><path d="M28.446 35a6.554 6.554 0 1 0 0-13.107 6.554 6.554 0 0 0 0 13.107Zm13.108 13.107a6.554 6.554 0 1 0 0-13.107 6.554 6.554 0 0 0 0 13.107Z" fill="#020202"/><path d="M43.833 26.167 26.167 43.833" stroke="#020202" stroke-width="2" stroke-miterlimit="10"/><path d="M89.592 54.462v13.063" stroke="#020202" stroke-miterlimit="10"/></g><defs><clipPath id="a"><path fill="#fff" d="M0 0h90.083v70H0z"/></clipPath></defs></svg>