<svg width="49" height="70" fill="none" xmlns="http://www.w3.org/2000/svg"><g clip-path="url(#a)"><path d="m11.652 43.72-9.49 18.572 9.46.1 8.057-15.769a23.06 23.06 0 0 1-8.027-2.903Z" fill="#ED1B24"/><path d="m19.68 46.623-8.059 15.77L17.245 70 29.18 46.643a26.594 26.594 0 0 1-9.502-.02Z" fill="#ED1B24"/><path d="M36.665 43.125a15.055 15.055 0 0 1-7.695 3.555L37 62.393l9.46-.1-9.795-19.168Zm-17.259 3.452L31.376 70l5.623-7.607-8.03-15.713a26.79 26.79 0 0 1-9.563-.103Z" fill="#ED1B24"/><path d="M24.192 46.836c12.506 0 22.644-10.138 22.644-22.644 0-12.507-10.138-22.645-22.644-22.645-12.507 0-22.645 10.138-22.645 22.645 0 12.506 10.138 22.644 22.645 22.644Z" stroke="#020202" stroke-width="4" stroke-miterlimit="10"/><path d="M24.192 37c7.073 0 12.807-5.735 12.807-12.808 0-7.074-5.734-12.808-12.807-12.808-7.074 0-12.808 5.734-12.808 12.808 0 7.073 5.734 12.807 12.808 12.807Z" fill="#ED1B24"/><path d="m23.735 30.762-5.54-5.542 1.03-1.028 4.51.838 5.089-5.087 1.32 1.32-6.409 9.499Z" fill="#020202"/></g><defs><clipPath id="a"><path fill="#fff" d="M0 0h48.383v70H0z"/></clipPath></defs></svg>