<svg width="90" height="83" fill="none" xmlns="http://www.w3.org/2000/svg"><g clip-path="url(#a)"><path d="M60.25 40.39c7.893 0 14.292-5.869 14.292-13.108 0-7.238-6.4-13.106-14.293-13.106-7.894 0-14.293 5.868-14.293 13.106 0 7.24 6.4 13.107 14.293 13.107Zm-30.5 28.434c7.895 0 14.293-5.868 14.293-13.107 0-7.238-6.398-13.106-14.292-13.106s-14.293 5.868-14.293 13.106c0 7.239 6.4 13.107 14.293 13.107Z" fill="#fff" fill-opacity=".25"/><path d="M60.25 52.574a29.545 29.545 0 0 0 12.02-2.522c1.841-.819 7.485 1.773 9.07.615 1.763-1.288-.568-6.363.805-8.004 2.665-3.19 4.462-6.917 5.243-10.87a23.277 23.277 0 0 0-.75-11.867c-1.275-3.845-3.53-7.356-6.58-10.242C77.01 6.798 73.254 4.62 69.104 3.33a29.952 29.952 0 0 0-12.91-1.064c-4.334.59-8.453 2.12-12.014 4.461s-6.463 5.427-8.465 9.002c-2.002 3.575-3.046 7.535-3.046 11.553" stroke="#fff" stroke-opacity=".25" stroke-width="4" stroke-miterlimit="10"/><path d="M57.33 55.717c-.001 4.284-1.189 8.497-3.451 12.244-2.263 3.748-5.526 6.907-9.483 9.183-3.958 2.275-8.48 3.592-13.144 3.827-4.665.235-9.317-.62-13.523-2.485-1.84-.818-7.484 1.773-9.068.616-1.764-1.288.567-6.363-.806-8.004-2.665-3.19-4.462-6.917-5.243-10.87a23.277 23.277 0 0 1 .75-11.867c1.275-3.845 3.53-7.356 6.58-10.242 3.049-2.886 6.804-5.065 10.954-6.355a29.953 29.953 0 0 1 12.91-1.064c4.334.591 8.453 2.12 12.014 4.462 3.561 2.341 6.463 5.427 8.465 9.002 2.002 3.574 3.046 7.535 3.046 11.553Zm-1.365-31.241c0-.752.243-1.486.699-2.111a4.089 4.089 0 0 1 1.86-1.4 4.494 4.494 0 0 1 2.395-.217 4.273 4.273 0 0 1 2.122 1.04 3.72 3.72 0 0 1 1.135 1.947c.16.737.077 1.501-.236 2.196a3.893 3.893 0 0 1-1.527 1.706 4.416 4.416 0 0 1-2.303.64m0 2.967c-.429 0-.84-.156-1.143-.434a1.424 1.424 0 0 1-.474-1.049c0-.393.17-.77.474-1.049a1.694 1.694 0 0 1 1.143-.434" stroke="#fff" stroke-width="4" stroke-miterlimit="10"/><path d="M59.309 37.444c1.076 0 1.948-.8 1.948-1.787 0-.987-.872-1.787-1.948-1.787s-1.949.8-1.949 1.787c0 .987.873 1.787 1.949 1.787Zm-29.565 20.57c1.383 0 2.505-1.028 2.505-2.297 0-1.268-1.122-2.297-2.505-2.297-1.383 0-2.505 1.029-2.505 2.297 0 1.269 1.122 2.297 2.505 2.297Zm6.43 0c1.383 0 2.505-1.028 2.505-2.297 0-1.268-1.122-2.297-2.505-2.297-1.383 0-2.505 1.029-2.505 2.297 0 1.269 1.122 2.297 2.505 2.297Zm-12.929 0c1.383 0 2.505-1.028 2.505-2.297 0-1.268-1.122-2.297-2.505-2.297-1.383 0-2.505 1.029-2.505 2.297 0 1.269 1.122 2.297 2.505 2.297Z" fill="#fff"/></g><defs><clipPath id="a"><path fill="#fff" d="M0 0h90v83H0z"/></clipPath></defs></svg>