<svg width="104" height="74" fill="none" xmlns="http://www.w3.org/2000/svg"><path d="M26.674 64.856H.547v6.597h26.127v-6.597Z" fill="#fff"/><path d="M63.635 2.005c10.125 0 19.836 3.687 26.995 10.25C97.79 18.818 101.812 27.72 101.812 37S97.79 55.182 90.63 61.745c-7.16 6.563-16.87 10.25-26.995 10.25H31.63c-1.637 0-3.207-.596-4.365-1.657-1.157-1.062-1.808-2.5-1.808-4.002V37c0-9.281 4.023-18.182 11.182-24.745 7.16-6.563 16.87-10.25 26.996-10.25Z" stroke="#fff" stroke-width="4" stroke-miterlimit="10"/><path d="M63.635 64.56c16.605 0 30.067-12.339 30.067-27.56 0-15.221-13.462-27.56-30.067-27.56-16.606 0-30.067 12.339-30.067 27.56 0 15.221 13.461 27.56 30.067 27.56Z" fill="#fff" fill-opacity=".25"/><path d="M56.061 37c4.183 0 7.574-3.108 7.574-6.942s-3.391-6.942-7.574-6.942c-4.182 0-7.573 3.108-7.573 6.942S51.878 37 56.06 37Zm15.147 13.884c4.183 0 7.574-3.108 7.574-6.942S75.39 37 71.208 37s-7.573 3.108-7.573 6.942 3.39 6.942 7.573 6.942Z" fill="#fff"/><path d="M73.843 27.643 53.427 46.357" stroke="#fff" stroke-width="2" stroke-miterlimit="10"/><path d="M.547 57.615v13.838" stroke="#fff" stroke-miterlimit="10"/></svg>