<svg width="89" height="73" fill="none" xmlns="http://www.w3.org/2000/svg"><path d="M44.273 26.667v31.445M11.598 25.693h65.35" stroke="#fff" stroke-width="4" stroke-miterlimit="10"/><path d="M19.964.685h-9.19v57.844h9.19V.685Zm56.983 0H66.97V58.89h9.978V.685Z" fill="#fff" fill-opacity=".25"/><path d="M9.887.685v8.84h64.92V.685H9.888Z" fill="#fff" fill-opacity=".25"/><path d="M75.338 2h-63.74v58.223h63.74V2ZM2.19 60.223h82.266v1.52c0 2.455-1.068 4.81-2.968 6.545C79.588 70.024 77.01 71 74.322 71H12.323c-2.687 0-5.265-.975-7.165-2.71-1.9-1.737-2.968-4.09-2.968-6.546v-1.52Z" stroke="#fff" stroke-width="4" stroke-miterlimit="10"/><path d="M75.338 39.507c7.545 0 13.662-5.588 13.662-12.48s-6.117-12.48-13.662-12.48c-7.545 0-13.662 5.588-13.662 12.48s6.117 12.48 13.662 12.48Z" fill="#fff" fill-opacity=".25"/><path d="m74.792 33.244-6.97-6.368 1.294-1.182 5.676.964 6.402-5.847 1.66 1.516-8.062 10.917Z" fill="#fff"/></svg>