<svg data-name="Слой 2" xmlns="http://www.w3.org/2000/svg" viewBox="0 0 82.912 83.381"><circle cx="55.504" cy="27.408" r="13.167" style="fill:#ffeda1"/><circle cx="27.408" cy="55.973" r="13.167" style="fill:#fff"/><path d="M314.144 174.69a25.306 25.306 0 0 0 11.075-2.534c1.696-.823 6.895 1.781 8.355.618 1.624-1.294-.523-6.392.742-8.04a25.408 25.408 0 1 0-45.58-15.452" transform="translate(-258.64 -121.874)" style="fill:none;stroke:#fff;stroke-miterlimit:10;stroke-width:4px"/><path d="M311.456 177.848a25.419 25.419 0 0 1-36.483 22.873c-1.695-.822-6.895 1.781-8.354.619-1.625-1.295.522-6.393-.742-8.041a25.408 25.408 0 1 1 45.579-15.451Zm-1.258-31.385a3.819 3.819 0 1 1 3.818 3.819m0 2.98a1.49 1.49 0 0 1 0-2.98" transform="translate(-258.64 -121.874)" style="fill:none;stroke:#020202;stroke-miterlimit:10;stroke-width:4px"/><circle cx="54.638" cy="35.821" r="1.795" style="fill:#020202"/><circle cx="27.401" cy="55.973" r="2.307" style="fill:#ffda00"/><circle cx="33.325" cy="55.973" r="2.307" style="fill:#ffda00"/><circle cx="21.414" cy="55.973" r="2.307" style="fill:#ffda00"/></svg>