<svg width="119" height="69" fill="none" xmlns="http://www.w3.org/2000/svg"><path d="M46.363 55.37c0 3.614-1.562 7.081-4.342 9.638C39.241 67.564 35.471 69 31.538 69c-3.931 0-7.702-1.436-10.483-3.992-2.78-2.557-4.342-6.024-4.342-9.639m95.682.001c0 3.614-1.562 7.081-4.342 9.638C105.273 67.564 101.502 69 97.57 69c-3.931 0-7.702-1.436-10.482-3.992-2.78-2.557-4.343-6.024-4.343-9.639" fill="#fff"/><path d="M48.617 41.886c7.928 0 14.355-5.91 14.355-13.199 0-7.29-6.427-13.199-14.355-13.199-7.928 0-14.355 5.91-14.355 13.2 0 7.289 6.427 13.198 14.355 13.198Z" fill="#fff" fill-opacity=".25"/><path d="m48.044 35.262-7.324-6.736 1.36-1.25 5.964 1.02 6.727-6.184 1.743 1.604-8.47 11.546Z" fill="#fff"/><path d="M78.322 2.005H10.463V55.37h67.858V2.005Z" stroke="#fff" stroke-width="4" stroke-miterlimit="10"/><path d="M116.819 55.37H78.321V14.552h19.25l19.248 20.409V55.37Z" stroke="#fff" stroke-width="4" stroke-miterlimit="10"/><path d="M20.927 17.548H0v4.945h20.927v-4.945Zm0 8.666H0v4.946h20.927v-4.946Zm0 8.666H0v4.946h20.927v-4.945Z" fill="#fff" fill-opacity=".25"/></svg>