<svg data-name="Слой 2" xmlns="http://www.w3.org/2000/svg" viewBox="0 0 82.461 78.764"><path d="M48.162 23.043H73.4a9.062 9.062 0 0 1 9.062 9.062V48.28a9.062 9.062 0 0 1-9.062 9.062H48.162v-34.3Z" style="fill:#ffeda1"/><path d="M17.901 5.461h15.207v2.46a3.756 3.756 0 0 1-3.756 3.756h-7.695a3.756 3.756 0 0 1-3.756-3.756v-2.46Z" style="fill:#020202"/><path d="M199.428 123.602a3.782 3.782 0 0 1 3.777 3.777v63.21a3.782 3.782 0 0 1-3.777 3.777h-35.454a3.782 3.782 0 0 1-3.778-3.777V127.38a3.782 3.782 0 0 1 3.778-3.778h35.454m0-4h-35.454a7.778 7.778 0 0 0-7.778 7.778v63.209a7.778 7.778 0 0 0 7.778 7.778h35.454a7.778 7.778 0 0 0 7.777-7.778V127.38a7.778 7.778 0 0 0-7.777-7.778Z" transform="translate(-156.196 -119.602)" style="fill:#fff"/><circle cx="25.505" cy="39.382" r="13.167" style="fill:#ffeda1"/><path style="fill:#020202" d="m24.979 45.941-6.718-6.719 1.247-1.247 5.471 1.017 6.169-6.169 1.6 1.6-7.769 11.518z"/><path style="fill:none;stroke:#020202;stroke-miterlimit:10;stroke-width:2px" d="M18.081 67.372h14.847"/><path style="fill:#ffda00" d="M55.296 32.952h20.031v3.59H55.296zm0 5.906h20.031v3.59H55.296zm0 6.27h20.031v3.59H55.296z"/></svg>