<svg data-name="Слой 2" xmlns="http://www.w3.org/2000/svg" viewBox="0 0 81.284 72.99"><path style="fill:none;stroke:#020202;stroke-miterlimit:10;stroke-width:4px" d="M40.434 26.663v31.441M10.592 25.69h59.684"/><path style="fill:#ffeda1" d="M9.84.685h8.393v57.836H9.84zm51.323 0h9.114v58.198h-9.114z"/><path transform="rotate(-90 61.235 274.818)" style="fill:#ffeda1" d="M326.529 222.613h8.839v59.293h-8.839z"/><path style="fill:none;stroke:#000;stroke-miterlimit:10;stroke-width:4px" d="M10.592 2h58.214v58.214H10.592zM2 60.214h75.134v1.52a9.255 9.255 0 0 1-9.255 9.255H11.255A9.255 9.255 0 0 1 2 61.735v-1.52Z"/><circle cx="68.807" cy="27.023" r="12.478" style="fill:#fff"/><path style="fill:#020202" d="m68.308 33.239-6.366-6.367 1.182-1.182 5.184.964 5.847-5.846 1.516 1.516-7.363 10.915z"/></svg>