<svg data-name="Слой 2" xmlns="http://www.w3.org/2000/svg" viewBox="0 0 109.149 68.834"><path d="M189.124 308.51a13.598 13.598 0 0 1-27.196 0m87.762 0a13.598 13.598 0 0 1-27.196 0" transform="translate(-146.599 -253.274)" style="fill:#ffeda1"/><circle cx="44.593" cy="28.618" r="13.167" style="fill:#fff"/><path style="fill:#020202" d="m44.067 35.177-6.718-6.719 1.247-1.247 5.471 1.017 6.17-6.169 1.599 1.6-7.769 11.518z"/><path style="fill:none;stroke:#000;stroke-miterlimit:10;stroke-width:4px" d="M9.598 2h62.241v53.237H9.598z"/><path style="fill:none;stroke:#000;stroke-miterlimit:10;stroke-width:4px" d="M107.149 55.237H71.838v-40.72h17.656l17.655 20.36v20.36z"/><path style="fill:#fff" d="M0 17.506h19.195v4.934H0zm0 8.645h19.195v4.934H0zm0 8.646h19.195v4.934H0z"/></svg>