<svg width="90" height="79" fill="none" xmlns="http://www.w3.org/2000/svg"><g clip-path="url(#a)"><path d="M52.565 23.112H80.11c2.624 0 5.14.957 6.994 2.662C88.958 27.478 90 29.79 90 32.2v16.223c0 2.411-1.042 4.723-2.897 6.427-1.855 1.705-4.37 2.663-6.993 2.663H52.564V23.112Z" fill="#fff" fill-opacity=".25"/><path d="M19.538 5.478h16.596v2.467a3.5 3.5 0 0 1-.312 1.441 3.764 3.764 0 0 1-.888 1.223c-.38.35-.833.627-1.33.816-.497.19-1.03.287-1.569.287h-8.398c-1.087 0-2.13-.397-2.898-1.103-.769-.707-1.2-1.665-1.2-2.664V5.478Z" fill="#fff"/><path d="M47.184 4.012c1.093.001 2.141.4 2.914 1.111.773.71 1.208 1.673 1.209 2.678v63.398c-.001 1.005-.436 1.968-1.21 2.678-.772.71-1.82 1.11-2.913 1.111H8.489c-1.093-.001-2.141-.4-2.914-1.111-.773-.71-1.208-1.673-1.21-2.678V7.801c.002-1.004.437-1.967 1.21-2.678.773-.71 1.82-1.11 2.914-1.11h38.695v-.001Zm0-4.012H8.489A9.142 9.142 0 0 0 5.24.594a8.574 8.574 0 0 0-2.754 1.691 7.793 7.793 0 0 0-1.84 2.531A7.256 7.256 0 0 0 0 7.801V71.2c0 1.024.22 2.038.646 2.985a7.793 7.793 0 0 0 1.84 2.53 8.575 8.575 0 0 0 2.754 1.692A9.143 9.143 0 0 0 8.49 79h38.695c2.251 0 4.41-.822 6.002-2.285 1.592-1.463 2.486-3.447 2.486-5.516V7.8c0-2.068-.894-4.053-2.486-5.516S49.436.001 47.184 0Z" fill="#fff"/><path d="M27.836 52.706c7.937 0 14.371-5.912 14.371-13.206s-6.434-13.206-14.37-13.206c-7.937 0-14.371 5.912-14.371 13.206s6.434 13.206 14.37 13.206Z" fill="#fff" fill-opacity=".25"/><path d="M27.263 46.078 19.93 39.34l1.361-1.25 5.972 1.02 6.733-6.188 1.746 1.605-8.48 11.552Z" fill="#fff"/><path d="M19.734 67.573h16.204" stroke="#fff" stroke-width="2" stroke-miterlimit="10"/><path d="M82.214 33.051H60.352v3.6h21.862v-3.6Zm0 5.924H60.352v3.6h21.862v-3.6Zm0 6.288H60.352v3.6h21.862v-3.6Z" fill="#fff"/></g><defs><clipPath id="a"><path fill="#fff" d="M0 0h90v79H0z"/></clipPath></defs></svg>