<svg xmlns="http://www.w3.org/2000/svg" viewBox="0 0 62.547 90.4922"><path d="M170.196,65.1231,157.9271,89.1323l12.2294.13,10.4171-20.3856A29.8079,29.8079,0,0,1,170.196,65.1231Z" transform="translate(-155.1334 -8.6046)" style="fill:#ffda00"/><path d="M180.5736,68.8767,170.1565,89.2623l7.27,9.8345,15.43-30.1949A34.38,34.38,0,0,1,180.5736,68.8767Z" transform="translate(-155.1334 -8.6046)" style="fill:#ffeda1"/><path d="M202.5314,64.3539A19.4623,19.4623,0,0,1,192.584,68.95l10.38,20.3128,12.2294-.13Z" transform="translate(-155.1334 -8.6046)" style="fill:#ffeda1"/><path d="M180.2206,68.8172l15.4731,30.28,7.27-9.8345L192.584,68.95A34.6316,34.6316,0,0,1,180.2206,68.8172Z" transform="translate(-155.1334 -8.6046)" style="fill:#ffda00"/><circle cx="31.2735" cy="31.2735" r="29.2735" style="fill:none;stroke:#020202;stroke-miterlimit:10;stroke-width:4px"/><circle cx="31.2735" cy="31.2735" r="16.5571" style="fill:#ffda00"/><polygon points="30.684 39.767 23.522 32.603 24.852 31.274 30.684 32.358 37.262 25.781 38.968 27.487 30.684 39.767" style="fill:#020202"/></svg>