<svg xmlns="http://www.w3.org/2000/svg" viewBox="0 0 62.7437 79.1679"><path d="M473.6424,12.0946H435.6581a7.4016,7.4016,0,0,0-7.38,7.38V21.07a8.5124,8.5124,0,0,1,2.5117-.12c8.3635.8788,17.1092,1.6557,25.5593.8273a14.8616,14.8616,0,0,1,11.416.2121,2.4792,2.4792,0,0,1,.93.5581c3.9265,2.9449,6.1842,6.6341,5.5863,11.6589a11.9441,11.9441,0,0,1-1.5739,4.4739c-.6308,7.184.2171,14.95.2129,22.0172-.0036,5.8479,1.4968,12.3687-.3223,18.03a16.8655,16.8655,0,0,1-1.0393,2.5352h2.0832a7.4015,7.4015,0,0,0,7.38-7.38V19.4744A7.4015,7.4015,0,0,0,473.6424,12.0946Z" transform="translate(-418.2786 -12.0946)" style="fill:#ffda00"/><rect x="30.7437" y="57.754" width="12.8372" height="3.6863" style="fill:#ffda00"/><rect x="12.5904" y="22.1133" width="30.9905" height="3.6863" style="fill:#020202"/><rect x="12.5904" y="29.4858" width="30.9905" height="3.6863" style="fill:#020202"/><rect x="12.5904" y="36.8584" width="30.9905" height="3.6863" style="fill:#020202"/><path d="M465.6429,91.2625H427.6576a9.39,9.39,0,0,1-9.379-9.38V27.4744a9.39,9.39,0,0,1,9.379-9.38h37.9853a9.3908,9.3908,0,0,1,9.38,9.38V81.8826A9.3908,9.3908,0,0,1,465.6429,91.2625Zm-37.9853-69.168a5.3854,5.3854,0,0,0-5.379,5.38V81.8826a5.3854,5.3854,0,0,0,5.379,5.38h37.9853a5.3856,5.3856,0,0,0,5.38-5.38V27.4744a5.3856,5.3856,0,0,0-5.38-5.38Z" transform="translate(-418.2786 -12.0946)" style="fill:#020202"/><circle cx="19.3089" cy="59.5972" r="6.7185" style="fill:#ffda00"/></svg>