<svg xmlns="http://www.w3.org/2000/svg" viewBox="0 0 86.2643 73.1676"><line y1="19.9725" x2="11.4418" y2="19.9725" style="fill:none;stroke:#000;stroke-miterlimit:10;stroke-width:4px"/><path d="M328.6519,81.4449H314.0562a1.8431,1.8431,0,0,1-1.8431-1.8432h0a1.8431,1.8431,0,0,1,1.8431-1.8431h14.5957Z" transform="translate(-244.3876 -18.0946)" style="fill:#ffeda1"/><rect x="60.6074" y="38.1148" width="15.6453" height="12.9422" style="fill:#ffda00"/><path d="M295.18,89.2623h29.5269a3.9453,3.9453,0,0,0,3.9453-3.9453V78.0453a7.0423,7.0423,0,0,0-2.2617-5.1712l-5.75-5.3158H304.995l-10.6925,7.3094a7.0423,7.0423,0,0,0-3.0682,5.8139V85.317A3.9454,3.9454,0,0,0,295.18,89.2623Z" transform="translate(-244.3876 -18.0946)" style="fill:none;stroke:#000;stroke-miterlimit:10;stroke-width:4px"/><path d="M13.2625,8.7838h8.9089a0,0,0,0,1,0,0V31.331a0,0,0,0,1,0,0H13.2625a4.3934,4.3934,0,0,1-4.3934-4.3934v-13.76A4.3934,4.3934,0,0,1,13.2625,8.7838Z" style="fill:#ffda00"/><rect x="22.1714" y="2" width="62.0929" height="36.1148" rx="10.354" style="fill:none;stroke:#000;stroke-miterlimit:10;stroke-width:4px"/><circle cx="32.6193" cy="19.9725" r="2.4736"/><circle cx="40.9914" cy="19.9725" r="2.4736"/><rect x="60.6074" y="13.9841" width="16.4389" height="3.6863" style="fill:#ffeda1"/><rect x="60.6074" y="22.2745" width="16.4389" height="3.6863" style="fill:#ffeda1"/></svg>