<?xml version="1.0" encoding="utf-8"?>
<!-- Generator: Adobe Illustrator 24.1.1, SVG Export Plug-In . SVG Version: 6.00 Build 0)  -->
<svg version="1.1" id="_x31_" xmlns="http://www.w3.org/2000/svg" xmlns:xlink="http://www.w3.org/1999/xlink" x="0px" y="0px"
	 width="22px" height="25.3px" viewBox="0 0 22 25.3" enable-background="new 0 0 22 25.3" xml:space="preserve">
<path id="_x32_" fill="#010101" d="M22,17L16,7l0-7L6,0l0,7L0,17L22,17z M14,2l0,5l0,0.5l-6,0L8,7l0-5L14,2z M7.5,8.5l7.1,0l3.9,6.5
	L3.6,15L7.5,8.5z M12,21.7v2.7c0,0.6-0.4,1-1,1s-1-0.4-1-1v-2.7c0-0.6,0.4-1,1-1S12,21.1,12,21.7z M19.1,21.9
	c0.3,0.5,0.1,1.1-0.4,1.4c-0.2,0.1-0.3,0.1-0.5,0.1c-0.3,0-0.7-0.2-0.9-0.5L16,20.6c-0.3-0.5-0.1-1.1,0.4-1.4
	c0.5-0.3,1.1-0.1,1.4,0.4L19.1,21.9z M6.1,20.6l-1.3,2.3c-0.2,0.3-0.5,0.5-0.9,0.5c-0.2,0-0.3,0-0.5-0.1C2.9,23,2.8,22.4,3,21.9
	l1.3-2.3c0.3-0.5,0.9-0.6,1.4-0.4C6.2,19.5,6.4,20.1,6.1,20.6z"/>
</svg>
