<?xml version="1.0" encoding="utf-8"?>
<!-- Generator: Adobe Illustrator 24.1.1, SVG Export Plug-In . SVG Version: 6.00 Build 0)  -->
<svg version="1.1" id="_x31_" xmlns="http://www.w3.org/2000/svg" xmlns:xlink="http://www.w3.org/1999/xlink" x="0px" y="0px"
	 width="27.5px" height="22px" viewBox="0 0 27.5 22" enable-background="new 0 0 27.5 22" xml:space="preserve">
<path id="_x32_" d="M27.5,8.9l-1.4-1.4L24,9.6l-2.1-2.1l-1.4,1.4l2.1,2.1l-2.1,2.1l1.4,1.4l2.1-2.1l2.1,2.1l1.4-1.4L25.4,11
	L27.5,8.9z M26.1,8.9L26.1,8.9l-1.4,1.4l0,0L26.1,8.9z M21.9,13.1L21.9,13.1l1.4-1.4l0,0L21.9,13.1z M23.3,10.3l-1.4-1.4l0,0
	L23.3,10.3L23.3,10.3z M24,11L24,11L24,11L24,11L24,11z M26.1,13.1L26.1,13.1l-1.4-1.4l0,0L26.1,13.1z M7,6H0v10h7l10,6V0L7,6L7,6z
	 M8.5,7.4L15,3.5v14.9l-6.5-3.9V7.4z M7.5,8v6H7H2V8l5,0L7.5,8z"/>
</svg>
