<svg xmlns="http://www.w3.org/2000/svg" viewBox="0 0 24.4819 30.0275">
    <path d="M278.944,62.363h0c-3.75,2.4927-9.8006.0452-13.4461-5.4388l-4.1732-6.2781c-3.6454-5.484-3.56-12.01.19-14.5031h0"
          transform="translate(-257.8955 -34.0618)"
          style="fill:none;stroke:#020202;stroke-miterlimit:10;stroke-width:1.5px"/>
    <path d="M274.5586,53.3128a3.4954,3.4954,0,0,1,4.8318.973L281.048,56.78a3.4955,3.4955,0,0,1-.9731,4.8318l-1.2763.8483"
          transform="translate(-257.8955 -34.0618)"
          style="fill:none;stroke:#020202;stroke-miterlimit:10;stroke-width:1.5px"/>
    <path d="M268.1619,43.69a3.4955,3.4955,0,0,0,.9731-4.8318l-1.6576-2.4936a3.4953,3.4953,0,0,0-4.8318-.9731l-1.2762.8483"
          transform="translate(-257.8955 -34.0618)"
          style="fill:none;stroke:#020202;stroke-miterlimit:10;stroke-width:1.5px"/>
    <path d="M274.8792,53.0991l-2.1513,1.4336a.8661.8661,0,0,1-1.19-.2833l-5.4144-8.125a.8661.8661,0,0,1,.1967-1.2073l2.1513-1.4336"
          transform="translate(-257.8955 -34.0618)"
          style="fill:none;stroke:#020202;stroke-miterlimit:10;stroke-width:1.5px"/>
</svg>