<svg width="91" height="70" viewBox="0 0 91 70" fill="none" xmlns="http://www.w3.org/2000/svg">
<g clip-path="url(#clip0_5_136)">
<path d="M67.15 67.525H89.5919V61.2972H67.15V67.525Z" fill="#ED1B24"/>
<path d="M61.2972 68.036H34.9999C30.6615 68.036 26.3656 67.1815 22.3575 65.5213C18.3493 63.8611 14.7075 61.4276 11.6398 58.3599C8.57208 55.2922 6.13863 51.6504 4.4784 47.6422C2.81818 43.6341 1.96368 39.3382 1.96368 34.9998V34.9998C1.96368 26.238 5.44429 17.8351 11.6398 11.6397C17.8353 5.44416 26.2382 1.96356 34.9999 1.96356V1.96356C43.7617 1.96356 52.1646 5.44416 58.3601 11.6397C64.5556 17.8351 68.0361 26.238 68.0361 34.9998V61.2972C68.0361 63.0845 67.3261 64.7986 66.0623 66.0624C64.7985 67.3262 63.0844 68.0362 61.2971 68.0362L61.2972 68.036Z" stroke="#020202" stroke-width="4" stroke-miterlimit="10"/>
<path d="M35 61.0179C49.3693 61.0179 61.0179 49.3693 61.0179 35C61.0179 20.6307 49.3693 8.98206 35 8.98206C20.6307 8.98206 8.98206 20.6307 8.98206 35C8.98206 49.3693 20.6307 61.0179 35 61.0179Z" fill="#ED1B24"/>
<path d="M28.4464 35C32.0659 35 35.0001 32.0658 35.0001 28.4463C35.0001 24.8268 32.0659 21.8926 28.4464 21.8926C24.8269 21.8926 21.8927 24.8268 21.8927 28.4463C21.8927 32.0658 24.8269 35 28.4464 35Z" fill="#020202"/>
<path d="M41.5537 48.1073C45.1732 48.1073 48.1073 45.1732 48.1073 41.5537C48.1073 37.9342 45.1732 35 41.5537 35C37.9342 35 35 37.9342 35 41.5537C35 45.1732 37.9342 48.1073 41.5537 48.1073Z" fill="#020202"/>
<path d="M43.8331 26.1668L26.1667 43.8331" stroke="#020202" stroke-width="2" stroke-miterlimit="10"/>
<path d="M89.5919 54.4615V67.5251" stroke="#020202" stroke-miterlimit="10"/>
</g>
<defs>
<clipPath id="clip0_5_136">
<rect width="90.0828" height="70" fill="white"/>
</clipPath>
</defs>
</svg>
