<svg width="49" height="70" viewBox="0 0 49 70" fill="none" xmlns="http://www.w3.org/2000/svg">
<g clip-path="url(#clip0_5_155)">
<path d="M11.6516 43.7197L2.16107 62.292L11.6211 62.3925L19.6792 46.6233C16.846 46.1635 14.1235 45.1788 11.6516 43.7197Z" fill="#ED1B24"/>
<path d="M19.6792 46.6233L11.6211 62.3925L17.2448 70L29.1806 46.6428C26.038 47.2067 22.8195 47.2001 19.6792 46.6233Z" fill="#ED1B24"/>
<path d="M36.6646 43.1247C34.4931 45.0223 31.8223 46.2564 28.9698 46.68L36.9992 62.3929L46.4592 62.2924L36.6646 43.1247Z" fill="#ED1B24"/>
<path d="M19.4061 46.5773L31.3753 70.0003L36.999 62.3929L28.9698 46.68C25.8016 47.2197 22.562 47.1849 19.4061 46.5773Z" fill="#ED1B24"/>
<path d="M24.1916 46.836C36.6977 46.836 46.836 36.6977 46.836 24.1915C46.836 11.6853 36.6977 1.54709 24.1916 1.54709C11.6854 1.54709 1.54712 11.6853 1.54712 24.1915C1.54712 36.6977 11.6854 46.836 24.1916 46.836Z" stroke="#020202" stroke-width="4" stroke-miterlimit="10"/>
<path d="M24.1916 36.9992C31.265 36.9992 36.9993 31.265 36.9993 24.1915C36.9993 17.118 31.265 11.3838 24.1916 11.3838C17.1181 11.3838 11.3839 17.118 11.3839 24.1915C11.3839 31.265 17.1181 36.9992 24.1916 36.9992Z" fill="#ED1B24"/>
<path d="M23.7355 30.7616L18.1954 25.2199L19.2242 24.1919L23.7355 25.0304L28.8239 19.9428L30.1436 21.2625L23.7355 30.7616Z" fill="#020202"/>
</g>
<defs>
<clipPath id="clip0_5_155">
<rect width="48.3831" height="70" fill="white"/>
</clipPath>
</defs>
</svg>
