<svg width="83" height="70" viewBox="0 0 83 70" fill="none" xmlns="http://www.w3.org/2000/svg">
<g clip-path="url(#clip0_5_144)">
<path d="M0 19.1078H10.9465" stroke="black" stroke-width="4" stroke-miterlimit="10"/>
<path d="M80.6163 60.6077H66.6525C66.4209 60.6077 66.1916 60.5621 65.9777 60.4735C65.7637 60.3849 65.5693 60.255 65.4056 60.0912C65.2418 59.9275 65.112 59.7331 65.0233 59.5191C64.9347 59.3052 64.8891 59.0759 64.8892 58.8443C64.8892 58.3766 65.0749 57.9281 65.4056 57.5975C65.7363 57.2668 66.1848 57.081 66.6525 57.081H80.6163V60.6077Z" fill="#ED1B24"/>
<path d="M72.9516 36.4647H57.9836V48.8466H72.9516V36.4647Z" fill="#ED1B24"/>
<path d="M48.5935 68.0867H76.8421C77.8432 68.0867 78.8032 67.689 79.5111 66.9812C80.2189 66.2733 80.6166 65.3132 80.6166 64.3122V57.3553C80.6166 56.426 80.4244 55.5068 80.052 54.6554C79.6796 53.804 79.1352 53.0388 78.4528 52.408L72.9517 47.3223H57.9836L47.754 54.3153C46.8492 54.9337 46.109 55.7636 45.5974 56.7328C45.0859 57.7021 44.8186 58.7815 44.8186 59.8775V64.3122C44.8186 64.8079 44.9162 65.2987 45.106 65.7567C45.2957 66.2147 45.5737 66.6308 45.9243 66.9813C46.2748 67.3318 46.691 67.6098 47.1489 67.7995C47.6069 67.9891 48.0978 68.0867 48.5935 68.0867V68.0867Z" stroke="black" stroke-width="4" stroke-miterlimit="10"/>
<path d="M12.6883 8.40353H21.2115V29.9746H12.6883C11.5735 29.9746 10.5044 29.5318 9.7162 28.7435C8.92794 27.9553 8.48511 26.8862 8.48511 25.7714V12.6071C8.48506 12.0551 8.59374 11.5085 8.80495 10.9985C9.01616 10.4885 9.32575 10.0251 9.71606 9.63476C10.1064 9.24441 10.5697 8.93477 11.0797 8.72352C11.5897 8.51227 12.1363 8.40353 12.6883 8.40353Z" fill="#ED1B24"/>
<path d="M70.7105 1.91342H31.1173C25.6465 1.91342 21.2115 6.34838 21.2115 11.8192V26.559C21.2115 32.0298 25.6465 36.4647 31.1173 36.4647H70.7105C76.1813 36.4647 80.6163 32.0298 80.6163 26.559V11.8192C80.6163 6.34838 76.1813 1.91342 70.7105 1.91342Z" stroke="black" stroke-width="4" stroke-miterlimit="10"/>
<path d="M31.2071 21.4744C32.5141 21.4744 33.5737 20.4148 33.5737 19.1078C33.5737 17.8009 32.5141 16.7413 31.2071 16.7413C29.9002 16.7413 28.8406 17.8009 28.8406 19.1078C28.8406 20.4148 29.9002 21.4744 31.2071 21.4744Z" fill="black"/>
<path d="M39.2168 21.4744C40.5238 21.4744 41.5833 20.4148 41.5833 19.1078C41.5833 17.8009 40.5238 16.7413 39.2168 16.7413C37.9098 16.7413 36.8503 17.8009 36.8503 19.1078C36.8503 20.4148 37.9098 21.4744 39.2168 21.4744Z" fill="black"/>
<path d="M73.7108 13.3787H57.9836V16.9054H73.7108V13.3787Z" fill="#ED1B24"/>
<path d="M73.7108 21.3102H57.9836V24.8369H73.7108V21.3102Z" fill="#ED1B24"/>
</g>
<defs>
<clipPath id="clip0_5_144">
<rect width="82.5297" height="70" fill="white"/>
</clipPath>
</defs>
</svg>
