<svg width="90" height="79" viewBox="0 0 90 79" fill="none" xmlns="http://www.w3.org/2000/svg">
<g clip-path="url(#clip0_8_350)">
<path d="M52.5653 23.1116H80.1095C82.7326 23.1116 85.2483 24.0692 87.1032 25.7737C88.958 27.4783 90 29.7902 90 32.2008V48.4244C90 50.835 88.958 53.1469 87.1032 54.8514C85.2483 56.556 82.7326 57.5136 80.1095 57.5136H52.5653V23.1116Z" fill="white" fill-opacity="0.25"/>
<path d="M19.5381 5.47754H36.1344V7.9449C36.1344 8.4396 36.0284 8.92945 35.8224 9.38648C35.6164 9.84352 35.3144 10.2588 34.9338 10.6086C34.5531 10.9584 34.1012 11.2359 33.6039 11.4252C33.1066 11.6145 32.5735 11.7119 32.0352 11.7119H23.6373C22.5501 11.7119 21.5074 11.3151 20.7387 10.6086C19.97 9.90214 19.5381 8.94398 19.5381 7.9449V5.47754Z" fill="white"/>
<path d="M47.1839 4.01195C48.277 4.01309 49.325 4.41266 50.0979 5.123C50.8709 5.83333 51.3056 6.79641 51.3068 7.80096V71.1991C51.3056 72.2037 50.8708 73.1667 50.0979 73.877C49.325 74.5874 48.277 74.9869 47.1839 74.988H8.48864C7.39554 74.9869 6.34755 74.5874 5.57461 73.877C4.80167 73.1667 4.36691 72.2037 4.36569 71.1991V7.80146C4.36691 6.79691 4.80167 5.83383 5.57461 5.1235C6.34755 4.41317 7.39553 4.0136 8.48864 4.01246H47.1839V4.01195ZM47.1839 0.000488281H8.48864C7.37389 0.000488281 6.27005 0.202264 5.24015 0.594301C4.21025 0.986338 3.27448 1.56095 2.48623 2.28534C1.69798 3.00973 1.07271 3.86971 0.646118 4.81616C0.219529 5.76262 -1.43322e-05 6.77702 7.01737e-10 7.80146V71.1996C7.01737e-10 72.224 0.219556 73.2384 0.646151 74.1849C1.07275 75.1313 1.69802 75.9913 2.48626 76.7157C3.27451 77.44 4.2103 78.0147 5.24019 78.4067C6.27008 78.7987 7.3739 79.0005 8.48864 79.0005H47.1839C49.4352 79.0005 51.5943 78.1786 53.1862 76.7156C54.7782 75.2527 55.6725 73.2685 55.6725 71.1996V7.80146C55.6725 5.73253 54.7782 3.74834 53.1863 2.28537C51.5943 0.82241 49.4352 0.000514882 47.1839 0.000488281Z" fill="white"/>
<path d="M27.8364 52.7063C35.7731 52.7063 42.207 46.7936 42.207 39.5C42.207 32.2064 35.7731 26.2937 27.8364 26.2937C19.8997 26.2937 13.4657 32.2064 13.4657 39.5C13.4657 46.7936 19.8997 52.7063 27.8364 52.7063Z" fill="white" fill-opacity="0.25"/>
<path d="M27.2627 46.0784L19.9305 39.3393L21.2915 38.0886L27.2627 39.1086L33.9957 32.9211L35.742 34.5259L27.2627 46.0784Z" fill="white"/>
<path d="M19.7343 67.5732H35.9384" stroke="white" stroke-width="2" stroke-miterlimit="10"/>
<path d="M82.2136 33.051H60.3517V36.6516H82.2136V33.051Z" fill="white"/>
<path d="M82.2136 38.9746H60.3517V42.5752H82.2136V38.9746Z" fill="white"/>
<path d="M82.2136 45.2632H60.3517V48.8637H82.2136V45.2632Z" fill="white"/>
</g>
<defs>
<clipPath id="clip0_8_350">
<rect width="90" height="79" fill="white"/>
</clipPath>
</defs>
</svg>
