<svg width="90" height="83" viewBox="0 0 90 83" fill="none" xmlns="http://www.w3.org/2000/svg">
<g clip-path="url(#clip0_8_360)">
<path d="M60.2491 40.3893C68.1426 40.3893 74.5416 34.5212 74.5416 27.2825C74.5416 20.0439 68.1426 14.1758 60.2491 14.1758C52.3555 14.1758 45.9565 20.0439 45.9565 27.2825C45.9565 34.5212 52.3555 40.3893 60.2491 40.3893Z" fill="white" fill-opacity="0.25"/>
<path d="M29.7509 68.8241C37.6445 68.8241 44.0434 62.956 44.0434 55.7173C44.0434 48.4787 37.6445 42.6106 29.7509 42.6106C21.8574 42.6106 15.4584 48.4787 15.4584 55.7173C15.4584 62.956 21.8574 68.8241 29.7509 68.8241Z" fill="white" fill-opacity="0.25"/>
<path d="M60.2491 52.5742C64.4129 52.5797 68.5236 51.7171 72.2705 50.0516C74.1111 49.233 79.7551 51.8247 81.3394 50.6672C83.1026 49.3789 80.7722 44.304 82.145 42.6629C84.8096 39.4728 86.607 35.7463 87.3883 31.7923C88.1695 27.8382 87.9122 23.7704 86.6375 19.9257C85.3628 16.0811 83.1075 12.5703 80.0584 9.68415C77.0093 6.79805 73.2542 4.61971 69.1042 3.32961C64.9542 2.03951 60.5287 1.67477 56.1943 2.26562C51.86 2.85646 47.7415 4.38588 44.1801 6.72718C40.6187 9.06847 37.717 12.1542 35.7151 15.7289C33.7133 19.3035 32.6692 23.2641 32.6691 27.2825" stroke="white" stroke-opacity="0.25" stroke-width="4" stroke-miterlimit="10"/>
<path d="M57.3309 55.7173C57.3289 60.0009 56.1411 64.2138 53.8787 67.9614C51.6163 71.709 48.3535 74.8685 44.3959 77.144C40.4384 79.4194 35.9157 80.7362 31.2516 80.971C26.5875 81.2058 21.9348 80.3509 17.7294 78.4864C15.8889 77.6677 10.2449 80.2595 8.66061 79.1019C6.89734 77.8137 9.22776 72.7388 7.85494 71.0977C5.19032 67.9076 3.39293 64.1812 2.61168 60.2271C1.83043 56.2731 2.08781 52.2052 3.36249 48.3605C4.63717 44.5159 6.89247 41.0051 9.94155 38.119C12.9906 35.2329 16.7457 33.0545 20.8958 31.7644C25.0458 30.4743 29.4713 30.1096 33.8057 30.7004C38.14 31.2913 42.2585 32.8207 45.8198 35.162C49.3812 37.5033 52.283 40.5891 54.2848 44.1637C56.2866 47.7383 57.3308 51.6989 57.3309 55.7173V55.7173Z" stroke="white" stroke-width="4" stroke-miterlimit="10"/>
<path d="M55.9651 24.4763C55.9651 23.7245 56.2081 22.9896 56.6636 22.3645C57.119 21.7394 57.7664 21.2521 58.5238 20.9644C59.2812 20.6767 60.1147 20.6014 60.9187 20.7481C61.7228 20.8947 62.4614 21.2567 63.0411 21.7883C63.6208 22.3199 64.0156 22.9972 64.1755 23.7346C64.3355 24.4719 64.2534 25.2362 63.9397 25.9308C63.6259 26.6254 63.0947 27.2191 62.413 27.6367C61.7313 28.0544 60.9299 28.2774 60.1101 28.2774" stroke="white" stroke-width="4" stroke-miterlimit="10"/>
<path d="M60.1102 31.2442C59.6812 31.2442 59.2698 31.088 58.9665 30.8098C58.6632 30.5317 58.4928 30.1544 58.4928 29.761C58.4928 29.3677 58.6632 28.9904 58.9665 28.7123C59.2698 28.4341 59.6812 28.2778 60.1102 28.2778" stroke="white" stroke-width="4" stroke-miterlimit="10"/>
<path d="M59.3087 37.4438C60.3847 37.4438 61.257 36.6438 61.257 35.6571C61.257 34.6703 60.3847 33.8704 59.3087 33.8704C58.2327 33.8704 57.3604 34.6703 57.3604 35.6571C57.3604 36.6438 58.2327 37.4438 59.3087 37.4438Z" fill="white"/>
<path d="M29.744 58.0141C31.1273 58.0141 32.2487 56.9858 32.2487 55.7173C32.2487 54.4487 31.1273 53.4204 29.744 53.4204C28.3608 53.4204 27.2394 54.4487 27.2394 55.7173C27.2394 56.9858 28.3608 58.0141 29.744 58.0141Z" fill="white"/>
<path d="M36.174 58.0141C37.5573 58.0141 38.6786 56.9858 38.6786 55.7173C38.6786 54.4487 37.5573 53.4204 36.174 53.4204C34.7907 53.4204 33.6693 54.4487 33.6693 55.7173C33.6693 56.9858 34.7907 58.0141 36.174 58.0141Z" fill="white"/>
<path d="M23.245 58.0141C24.6283 58.0141 25.7497 56.9858 25.7497 55.7173C25.7497 54.4487 24.6283 53.4204 23.245 53.4204C21.8617 53.4204 20.7404 54.4487 20.7404 55.7173C20.7404 56.9858 21.8617 58.0141 23.245 58.0141Z" fill="white"/>
</g>
<defs>
<clipPath id="clip0_8_360">
<rect width="90" height="83" fill="white"/>
</clipPath>
</defs>
</svg>
