<svg width="104" height="74" viewBox="0 0 104 74" fill="none" xmlns="http://www.w3.org/2000/svg">
<path d="M26.6741 64.8562H0.546936V71.4532H26.6741V64.8562Z" fill="white"/>
<path d="M63.6348 2.00537C73.7601 2.00537 83.4707 5.6923 90.6304 12.2551C97.7901 18.8179 101.812 27.7189 101.812 37.0001C101.812 46.2812 97.7901 55.1823 90.6304 61.7451C83.4707 68.3078 73.7601 71.9948 63.6348 71.9948H31.6304C29.9932 71.9948 28.423 71.3986 27.2653 70.3375C26.1077 69.2763 25.4573 67.8371 25.4573 66.3363V37.0001C25.4573 27.7189 29.4795 18.8179 36.6392 12.2551C43.7989 5.6923 53.5095 2.00537 63.6348 2.00537V2.00537Z" stroke="white" stroke-width="4" stroke-miterlimit="10"/>
<path d="M63.6348 64.5602C80.2403 64.5602 93.7017 52.2211 93.7017 37C93.7017 21.7789 80.2403 9.4397 63.6348 9.4397C47.0293 9.4397 33.5679 21.7789 33.5679 37C33.5679 52.2211 47.0293 64.5602 63.6348 64.5602Z" fill="white" fill-opacity="0.25"/>
<path d="M56.0613 37C60.244 37 63.6348 33.8919 63.6348 30.0579C63.6348 26.2238 60.244 23.1157 56.0613 23.1157C51.8785 23.1157 48.4877 26.2238 48.4877 30.0579C48.4877 33.8919 51.8785 37 56.0613 37Z" fill="white"/>
<path d="M71.2083 50.8843C75.391 50.8843 78.7818 47.7762 78.7818 43.9421C78.7818 40.1081 75.391 37 71.2083 37C67.0256 37 63.6348 40.1081 63.6348 43.9421C63.6348 47.7762 67.0256 50.8843 71.2083 50.8843Z" fill="white"/>
<path d="M73.8426 27.6433L53.4269 46.3569" stroke="white" stroke-width="2" stroke-miterlimit="10"/>
<path d="M0.546936 57.6152V71.4533" stroke="white" stroke-miterlimit="10"/>
</svg>
