<svg width="89" height="73" viewBox="0 0 89 73" fill="none" xmlns="http://www.w3.org/2000/svg">
<path d="M44.2726 26.6667V58.1118" stroke="white" stroke-width="4" stroke-miterlimit="10"/>
<path d="M11.598 25.6934H76.9473" stroke="white" stroke-width="4" stroke-miterlimit="10"/>
<path d="M19.9638 0.684814H10.7739V58.5287H19.9638V0.684814Z" fill="white" fill-opacity="0.25"/>
<path d="M76.9473 0.684814H66.9686V58.8911H76.9473V0.684814Z" fill="white" fill-opacity="0.25"/>
<path d="M9.8866 0.684837V9.5249L74.8077 9.5249V0.684837L9.8866 0.684837Z" fill="white" fill-opacity="0.25"/>
<path d="M75.3379 2.00024H11.598V60.2226H75.3379V2.00024Z" stroke="white" stroke-width="4" stroke-miterlimit="10"/>
<path d="M2.18982 60.2227H84.4557V61.7429C84.4557 64.1978 83.3881 66.5522 81.4877 68.2881C79.5873 70.024 77.0098 70.9992 74.3222 70.9992H12.3233C9.63585 70.9992 7.05843 70.024 5.15805 68.2883C3.25766 66.5525 2.18996 64.1982 2.18982 61.7434V60.2232V60.2227Z" stroke="white" stroke-width="4" stroke-miterlimit="10"/>
<path d="M75.3379 39.5066C82.8833 39.5066 89 33.9193 89 27.0271C89 20.1349 82.8833 14.5476 75.3379 14.5476C67.7925 14.5476 61.6758 20.1349 61.6758 27.0271C61.6758 33.9193 67.7925 39.5066 75.3379 39.5066Z" fill="white" fill-opacity="0.25"/>
<path d="M74.792 33.2438L67.8217 26.8759L69.1159 25.6937L74.792 26.6579L81.194 20.811L82.8539 22.3272L74.792 33.2438Z" fill="white"/>
</svg>
