<svg width="119" height="69" viewBox="0 0 119 69" fill="none" xmlns="http://www.w3.org/2000/svg">
<path d="M46.3633 55.3694C46.3633 58.9844 44.8014 62.4514 42.0212 65.0076C39.241 67.5638 35.4702 68.9999 31.5384 68.9999C27.6065 68.9999 23.8357 67.5638 21.0555 65.0076C18.2753 62.4514 16.7134 58.9844 16.7134 55.3694" fill="white"/>
<path d="M112.395 55.3694C112.395 58.9844 110.833 62.4514 108.053 65.0076C105.273 67.5638 101.502 68.9999 97.5704 68.9999C93.6386 68.9999 89.8678 67.5638 87.0876 65.0076C84.3073 62.4514 82.7454 58.9844 82.7454 55.3694" fill="white"/>
<path d="M48.6172 41.8857C56.5454 41.8857 62.9724 35.9765 62.9724 28.6871C62.9724 21.3977 56.5454 15.4885 48.6172 15.4885C40.6891 15.4885 34.262 21.3977 34.262 28.6871C34.262 35.9765 40.6891 41.8857 48.6172 41.8857Z" fill="white" fill-opacity="0.25"/>
<path d="M48.044 35.2616L40.7197 28.5265L42.0793 27.2765L48.044 28.2959L54.7709 22.1121L56.5142 23.7159L48.044 35.2616Z" fill="white"/>
<path d="M78.3215 2.00488H10.4637V55.3696H78.3215V2.00488Z" stroke="white" stroke-width="4" stroke-miterlimit="10"/>
<path d="M116.819 55.37H78.3213V14.552H97.5707L116.819 34.961V55.37Z" stroke="white" stroke-width="4" stroke-miterlimit="10"/>
<path d="M20.9275 17.5479H0V22.4933H20.9275V17.5479Z" fill="white" fill-opacity="0.25"/>
<path d="M20.9275 26.2144H0V31.1598H20.9275V26.2144Z" fill="white" fill-opacity="0.25"/>
<path d="M20.9275 34.8809H0V39.8263H20.9275V34.8809Z" fill="white" fill-opacity="0.25"/>
</svg>
